<svg xmlns="http://www.w3.org/2000/svg" width="242" height="73" viewBox="0 0 242 73">
<g>
<path d="M 0.00 0.00 L 242.00 0.00 L 242.00 73.00 L 0.00 73.00 ZM 32.23 58.75 C34.09,61.05 37.04,60.17 38.15,57.00 C39.37,53.50 40.51,53.21 42.00,56.00 C43.10,58.06 46.00,58.78 46.00,57.00 C46.00,56.45 46.56,56.11 47.25,56.25 C47.95,56.39 48.64,55.31 48.81,53.79 C49.09,51.36 49.44,51.14 52.06,51.66 C57.11,52.67 59.64,48.60 56.79,44.03 C55.37,41.76 55.76,41.18 59.06,40.67 C62.61,40.13 62.41,35.96 58.75,34.21 C55.50,32.65 55.24,31.43 57.99,30.71 C62.77,29.46 61.19,22.00 56.16,22.00 C53.62,22.00 53.33,21.70 53.76,19.49 C54.47,15.74 52.39,13.84 48.38,14.59 C45.42,15.14 44.92,14.91 44.04,12.61 C42.80,9.35 41.53,9.32 38.59,12.50 C35.79,15.52 34.42,15.65 33.00,13.00 C32.41,11.90 31.12,11.00 30.12,11.00 C27.72,11.00 24.79,14.34 25.18,16.63 C25.41,17.95 24.84,18.50 23.18,18.60 C19.43,18.82 17.94,21.53 19.11,26.00 C19.39,27.06 18.57,27.59 16.32,27.81 C10.55,28.37 9.69,32.26 14.63,35.50 C16.51,36.73 16.94,37.63 16.41,39.31 C16.04,40.51 15.33,41.76 14.83,42.08 C13.15,43.17 15.12,45.77 18.06,46.36 C21.00,46.95 21.57,48.30 21.03,53.38 C20.87,54.93 21.32,55.16 23.67,54.70 C30.08,53.44 30.42,53.48 30.82,55.50 C31.04,56.60 31.67,58.06 32.23,58.75 ZM 132.22 38.25 L 131.94 50.00 L 135.42 50.00 C138.58,50.00 138.96,49.69 139.46,46.75 C139.76,44.96 140.11,41.03 140.25,38.00 C140.48,32.89 140.68,32.48 143.12,32.20 C146.33,31.82 146.97,33.65 146.99,43.25 L 147.00 50.00 L 154.00 50.00 L 154.00 43.57 C154.00,35.21 155.21,32.00 158.37,32.00 C161.47,32.00 162.00,33.53 162.00,42.58 L 162.00 50.00 L 169.00 50.00 L 169.00 40.63 C169.00,32.67 168.69,30.87 166.93,28.63 C163.77,24.62 158.01,24.91 154.58,29.25 C153.17,31.04 152.02,31.86 152.01,31.08 C151.99,28.47 148.78,26.00 145.42,26.00 C142.92,26.00 141.54,26.77 139.58,29.25 L 137.02 32.50 L 137.01 29.18 C137.00,26.31 136.69,25.90 134.75,26.18 C132.58,26.49 132.49,26.92 132.22,38.25 ZM 82.06 48.75 C82.02,49.52 83.33,50.00 85.48,50.00 C88.36,50.00 89.07,49.57 89.59,47.50 C90.18,45.17 90.63,45.00 96.50,45.00 C102.37,45.00 102.82,45.17 103.41,47.50 C103.93,49.57 104.64,50.00 107.52,50.00 C109.63,50.00 111.00,49.51 111.01,48.75 C111.02,48.06 108.90,41.29 106.32,33.70 L 101.61 19.91 L 96.57 20.20 L 91.52 20.50 L 86.82 34.00 C84.23,41.42 82.09,48.06 82.06,48.75 ZM 179.20 49.38 C184.24,51.95 190.74,50.98 194.16,47.14 C198.03,42.81 198.65,38.26 196.15,32.60 C193.84,27.39 191.35,26.00 184.33,26.00 C180.51,26.00 179.27,26.53 176.40,29.40 C173.51,32.29 173.00,33.50 173.00,37.45 C173.00,43.37 175.02,47.25 179.20,49.38 ZM 199.00 49.48 C199.00,49.77 200.73,50.00 202.85,50.00 C206.37,50.00 206.85,49.66 208.50,46.00 C209.49,43.80 210.62,42.00 211.00,42.00 C211.38,42.00 212.51,43.80 213.50,46.00 C215.16,49.68 215.62,50.00 219.21,50.00 C219.35,50.00 219.49,50.00 219.62,50.00 C221.15,50.00 222.05,50.01 222.31,49.60 C222.68,49.01 221.70,47.55 219.28,43.99 C219.14,43.77 218.99,43.55 218.83,43.32 C217.27,41.02 216.00,38.70 216.00,38.16 C216.00,37.62 217.59,34.77 219.52,31.84 L 223.05 26.50 L 220.44 26.18 C216.52,25.69 215.30,26.50 212.92,31.16 L 210.75 35.42 L 208.35 30.71 C206.19,26.46 205.62,26.00 202.48,26.00 C200.57,26.00 199.00,26.34 199.00,26.76 C199.00,27.18 200.61,29.92 202.58,32.85 L 206.17 38.17 L 202.58 43.57 C200.61,46.54 199.00,49.20 199.00,49.48 ZM 117.45 48.55 C119.84,50.93 123.20,51.63 126.42,50.39 C128.72,49.51 128.57,43.82 126.25,44.05 C122.27,44.46 122.00,44.08 122.00,38.07 C122.00,32.34 122.09,32.12 124.75,31.82 C126.93,31.57 127.50,30.98 127.50,29.00 C127.50,27.02 126.93,26.43 124.75,26.18 C122.59,25.94 122.00,25.35 122.00,23.43 C122.00,20.08 117.30,19.88 116.82,23.21 C116.62,24.61 115.58,25.63 114.00,26.00 C110.70,26.77 109.92,30.90 112.92,31.69 C114.77,32.17 115.00,32.99 115.00,39.16 C115.00,45.19 115.32,46.41 117.45,48.55 ZM 40.99 42.11 C36.47,43.37 34.38,43.03 32.17,40.69 C27.15,35.33 30.87,27.00 38.29,27.00 C43.38,27.00 45.15,29.82 44.20,36.46 C43.60,40.60 43.08,41.53 40.99,42.11 ZM 188.17 44.35 C185.91,46.40 185.03,46.41 182.22,44.44 C180.50,43.24 180.00,41.90 180.00,38.51 C180.00,31.92 184.56,28.70 188.43,32.57 C190.67,34.81 190.51,42.23 188.17,44.35 ZM 100.21 39.46 C99.04,40.63 93.00,39.98 93.00,38.68 C93.00,35.76 96.21,26.81 96.96,27.63 C98.13,28.89 100.86,38.81 100.21,39.46 Z" fill="rgb(4,2,45)"/>
<path d="M 32.23 58.75 C31.67,58.06 31.04,56.60 30.82,55.50 C30.42,53.48 30.08,53.44 23.67,54.70 C21.32,55.16 20.87,54.93 21.03,53.38 C21.57,48.30 21.00,46.95 18.06,46.36 C15.12,45.77 13.15,43.17 14.83,42.08 C15.33,41.76 16.04,40.51 16.41,39.31 C16.94,37.63 16.51,36.73 14.63,35.50 C9.69,32.26 10.55,28.37 16.32,27.81 C18.57,27.59 19.39,27.06 19.11,26.00 C18.53,23.78 18.61,21.99 19.29,20.73 C19.07,21.79 20.33,23.77 22.89,26.38 C27.49,31.08 27.44,32.27 22.68,30.91 C17.54,29.43 14.80,29.74 15.19,31.74 C15.41,32.90 17.29,33.96 20.76,34.89 C23.64,35.66 26.00,36.64 26.00,37.06 C26.00,37.49 23.73,38.59 20.95,39.52 C17.25,40.75 15.98,41.64 16.23,42.85 C16.59,44.63 18.04,44.75 25.00,43.56 L 29.50 42.79 L 25.75 46.69 C21.61,50.99 21.16,52.46 23.69,53.44 C24.88,53.89 26.73,52.74 29.83,49.64 L 34.28 45.19 L 30.69 41.49 C27.68,38.39 27.18,37.27 27.63,34.64 C28.77,27.90 32.07,25.00 38.60,25.00 C42.49,25.00 48.00,30.64 48.00,34.63 C48.00,37.99 45.24,42.57 42.46,43.84 L 40.24 44.85 L 42.21 50.92 C44.25,57.24 44.97,57.95 46.92,55.60 C47.80,54.54 47.80,53.09 46.91,49.56 C46.27,47.01 46.03,44.63 46.39,44.28 C46.75,43.92 48.78,45.33 50.91,47.41 C54.49,50.91 54.87,51.06 55.84,49.35 C56.71,47.81 56.10,46.68 52.19,42.63 L 47.50 37.76 L 51.50 38.54 C58.13,39.84 60.41,39.65 60.79,37.80 C61.05,36.49 59.82,35.71 55.56,34.48 C52.50,33.59 50.00,32.48 50.00,32.03 C50.00,31.57 52.25,30.66 55.00,30.00 C59.87,28.83 60.79,27.79 59.19,25.28 C58.59,24.33 57.25,24.42 53.23,25.71 C50.37,26.62 47.72,27.06 47.34,26.67 C46.95,26.29 48.13,24.43 49.95,22.55 C52.02,20.41 53.04,18.54 52.66,17.57 C51.70,15.06 49.87,15.71 45.18,20.25 L 40.79 24.50 L 41.58 21.00 C42.88,15.22 42.65,12.59 40.82,12.22 C39.58,11.97 38.81,13.09 37.81,16.61 C37.08,19.21 35.98,21.51 35.37,21.71 C34.76,21.91 33.74,20.04 33.11,17.54 C32.14,13.68 31.60,13.00 29.49,13.00 C29.31,13.00 29.15,13.00 28.99,13.00 C28.08,12.99 27.53,12.99 27.30,13.26 C26.96,13.65 27.31,14.65 28.18,17.11 C28.28,17.39 28.39,17.68 28.50,18.00 C29.33,20.34 30.00,23.15 30.00,24.24 C30.00,25.96 29.45,25.74 26.00,22.62 C23.49,20.35 21.97,19.24 20.96,19.13 C21.58,18.83 22.32,18.65 23.18,18.60 C24.84,18.50 25.41,17.95 25.18,16.63 C24.79,14.34 27.72,11.00 30.12,11.00 C31.12,11.00 32.41,11.90 33.00,13.00 C34.42,15.65 35.79,15.52 38.59,12.50 C41.53,9.32 42.80,9.35 44.04,12.61 C44.92,14.91 45.42,15.14 48.38,14.59 C52.39,13.84 54.47,15.74 53.76,19.49 C53.33,21.70 53.62,22.00 56.16,22.00 C61.19,22.00 62.77,29.46 57.99,30.71 C55.24,31.43 55.50,32.65 58.75,34.21 C62.41,35.96 62.61,40.13 59.06,40.67 C55.76,41.18 55.37,41.76 56.79,44.03 C59.64,48.60 57.11,52.67 52.06,51.66 C49.44,51.14 49.09,51.36 48.81,53.79 C48.64,55.31 47.95,56.39 47.25,56.25 C46.56,56.11 46.00,56.45 46.00,57.00 C46.00,58.78 43.10,58.06 42.00,56.00 C40.51,53.21 39.37,53.50 38.15,57.00 C37.04,60.17 34.09,61.05 32.23,58.75 ZM 40.99 42.11 C43.08,41.53 43.60,40.60 44.20,36.46 C45.15,29.82 43.38,27.00 38.29,27.00 C30.87,27.00 27.15,35.33 32.17,40.69 C34.38,43.03 36.47,43.37 40.99,42.11 ZM 33.37 56.51 C34.85,60.37 37.38,56.73 38.63,48.94 C39.19,45.44 39.03,45.00 37.23,45.00 C35.62,45.00 34.95,46.04 34.00,50.01 C33.34,52.77 33.05,55.69 33.37,56.51 ZM 135.42 50.00 L 134.84 50.00 C137.74,50.00 137.74,50.00 138.22,42.54 C138.73,34.47 139.97,32.00 143.51,32.00 C144.31,32.00 144.93,32.18 145.42,32.65 C144.86,32.18 144.11,32.08 143.12,32.20 C140.68,32.48 140.48,32.89 140.25,38.00 C140.11,41.03 139.76,44.96 139.46,46.75 C138.96,49.69 138.58,50.00 135.42,50.00 Z" fill="rgb(35,9,22)"/>
<path d="M 33.18 25.97 C34.63,24.87 34.47,22.86 32.89,16.75 C32.11,13.71 31.47,13.01 29.49,13.00 C31.60,13.00 32.14,13.68 33.11,17.54 C33.74,20.04 34.76,21.91 35.37,21.71 C35.90,21.53 36.79,19.80 37.50,17.65 C36.10,22.92 36.69,25.00 39.51,25.00 C40.67,25.00 42.22,25.95 43.68,27.32 C42.04,25.94 40.18,25.00 38.60,25.00 C36.46,25.00 34.66,25.31 33.18,25.97 ZM 32.01 26.60 C29.68,28.11 28.29,30.73 27.63,34.64 C28.38,30.22 29.72,27.76 32.01,26.60 ZM 31.39 48.08 L 34.26 45.16 L 34.28 45.19 ZM 22.24 51.23 C22.59,50.21 23.73,48.79 25.75,46.69 C23.78,48.73 22.64,50.19 22.24,51.23 ZM 39.18 13.07 C39.67,12.33 40.18,12.09 40.82,12.22 C40.19,12.09 39.67,12.33 39.18,13.07 ZM 27.36 14.67 C27.57,15.41 27.96,16.47 28.50,18.00 C28.39,17.68 28.28,17.39 28.18,17.11 C27.81,16.04 27.53,15.25 27.36,14.67 ZM 28.98 13.00 C28.80,13.00 28.63,13.00 28.48,13.00 C28.64,13.00 28.81,13.00 28.99,13.00 L 28.99 13.00 C29.14,13.00 29.30,13.00 29.46,13.00 C29.29,13.00 29.13,13.00 28.98,13.00 Z" fill="rgb(131,69,31)"/>
<path d="M 55.00 30.00 L 55.00 30.00 C57.44,29.04 58.54,27.14 57.16,25.76 C56.61,25.21 54.60,25.34 52.12,26.08 C50.40,26.60 48.75,26.87 47.88,26.81 C48.87,26.85 50.99,26.43 53.23,25.71 C57.25,24.42 58.59,24.33 59.19,25.28 C60.79,27.79 59.87,28.83 55.00,30.00 ZM 22.24 51.23 C22.64,50.19 23.78,48.73 25.75,46.69 L 28.22 44.12 L 26.19 46.44 C24.41,48.46 23.22,50.54 23.54,51.06 C24.58,52.75 27.11,52.10 29.98,49.49 L 29.83 49.64 C26.73,52.74 24.88,53.89 23.69,53.44 C22.40,52.94 21.88,52.31 22.24,51.23 ZM 27.36 14.67 C27.13,13.90 27.10,13.48 27.30,13.26 C27.48,13.04 27.87,13.00 28.48,13.00 L 28.48 13.00 C28.63,13.00 28.80,13.00 28.98,13.00 C29.13,13.00 29.29,13.00 29.46,13.00 L 29.49 13.00 C31.47,13.01 32.11,13.71 32.89,16.75 C33.00,17.15 33.09,17.53 33.18,17.89 C32.64,16.18 31.93,14.80 31.21,14.53 C28.65,13.54 27.64,15.52 28.88,19.07 C29.46,20.74 29.94,22.91 29.99,24.06 C29.93,22.86 29.28,20.22 28.50,18.00 C27.96,16.47 27.57,15.41 27.36,14.67 ZM 50.22 31.73 C50.38,31.26 51.36,30.86 53.17,30.50 C51.76,30.93 50.67,31.38 50.22,31.73 ZM 31.31 27.01 C30.39,27.65 29.64,28.55 29.04,29.78 C29.75,28.20 30.57,27.15 31.31,27.01 ZM 18.99 44.34 C20.29,44.30 22.19,44.03 24.96,43.54 L 29.42 42.75 L 29.37 42.82 L 25.00 43.56 C22.20,44.04 20.30,44.30 18.99,44.34 ZM 51.47 33.01 C52.49,33.48 53.95,34.01 55.56,34.48 C53.72,33.94 52.36,33.46 51.47,33.01 ZM 47.33 26.66 C47.32,26.65 47.32,26.65 47.31,26.65 C46.94,26.27 48.13,24.43 49.95,22.55 C48.15,24.41 46.98,26.25 47.33,26.66 ZM 32.48 46.98 L 34.24 45.15 L 34.26 45.16 ZM 34.12 22.53 C34.18,23.05 34.19,23.49 34.17,23.87 C34.18,23.46 34.16,23.01 34.12,22.53 ZM 17.81 44.28 C16.78,44.12 16.39,43.66 16.23,42.85 C16.39,43.66 16.79,44.12 17.81,44.28 ZM 30.00 24.26 L 30.00 24.27 C30.00,24.52 29.99,24.73 29.95,24.90 C29.99,24.73 30.00,24.52 30.00,24.26 Z" fill="rgb(197,119,56)"/>
<path d="M 50.22 31.73 C50.08,31.84 50.00,31.94 50.00,32.03 C50.00,32.24 50.56,32.60 51.47,33.01 C52.36,33.46 53.72,33.94 55.56,34.48 C59.82,35.71 61.05,36.49 60.79,37.80 C60.41,39.65 58.13,39.84 51.50,38.54 L 47.50 37.76 L 52.19 42.63 C56.10,46.68 56.71,47.81 55.84,49.35 C54.87,51.06 54.49,50.91 50.91,47.41 C48.78,45.33 46.75,43.92 46.39,44.28 C46.03,44.63 46.27,47.01 46.91,49.56 C47.80,53.09 47.80,54.54 46.92,55.60 C44.97,57.95 44.25,57.24 42.21,50.92 L 40.24 44.85 L 42.46 43.84 C45.24,42.57 48.00,37.99 48.00,34.63 C48.00,32.27 46.06,29.32 43.68,27.32 C42.22,25.95 40.67,25.00 39.51,25.00 C36.69,25.00 36.10,22.92 37.50,17.65 C37.61,17.31 37.71,16.96 37.81,16.61 C38.29,14.91 38.72,13.77 39.18,13.07 C39.67,12.33 40.19,12.09 40.82,12.22 C42.65,12.59 42.88,15.22 41.58,21.00 L 40.79 24.50 L 45.18 20.25 C49.87,15.71 51.70,15.06 52.66,17.57 C53.04,18.54 52.02,20.41 49.95,22.55 C48.13,24.43 46.94,26.27 47.31,26.65 C47.32,26.65 47.32,26.65 47.33,26.66 C47.33,26.66 47.33,26.67 47.34,26.67 C47.42,26.75 47.61,26.80 47.88,26.81 C48.75,26.87 50.40,26.60 52.12,26.08 C54.60,25.34 56.61,25.21 57.16,25.76 C58.54,27.14 57.44,29.04 55.00,30.00 C54.35,30.16 53.73,30.32 53.17,30.50 C51.36,30.86 50.38,31.26 50.22,31.73 ZM 33.18 25.97 C32.77,26.15 32.37,26.36 32.01,26.60 C31.76,26.73 31.53,26.86 31.31,27.01 C30.57,27.15 29.75,28.20 29.04,29.78 L 29.04 29.78 C28.43,31.04 27.97,32.64 27.63,34.64 C27.18,37.27 27.68,38.39 30.69,41.49 L 34.24 45.15 L 32.48 46.98 L 32.48 46.98 L 31.39 48.08 L 29.98 49.49 C27.11,52.10 24.58,52.75 23.54,51.06 C23.22,50.54 24.41,48.46 26.19,46.44 L 28.22 44.12 L 29.50 42.79 L 29.37 42.82 L 29.42 42.75 L 24.96 43.54 C22.19,44.03 20.29,44.30 18.99,44.34 L 18.99 44.34 C18.52,44.35 18.13,44.33 17.81,44.28 C16.79,44.12 16.39,43.66 16.23,42.85 C15.98,41.64 17.25,40.75 20.95,39.52 C23.73,38.59 26.00,37.49 26.00,37.06 C26.00,36.64 23.64,35.66 20.76,34.89 C17.29,33.96 15.41,32.90 15.19,31.74 C14.80,29.74 17.54,29.43 22.68,30.91 C27.44,32.27 27.49,31.08 22.89,26.38 C20.33,23.77 19.07,21.79 19.29,20.73 C19.66,20.03 20.22,19.50 20.96,19.13 C21.97,19.24 23.49,20.35 26.00,22.62 C28.91,25.25 29.76,25.82 29.95,24.90 C29.99,24.73 30.00,24.52 30.00,24.27 L 30.00 24.26 L 30.00 24.26 L 30.00 24.24 C30.00,24.19 30.00,24.13 29.99,24.06 L 29.99 24.06 C29.94,22.91 29.46,20.74 28.88,19.07 C27.64,15.52 28.65,13.54 31.21,14.53 C31.93,14.80 32.64,16.18 33.18,17.89 C33.68,19.89 34.00,21.38 34.12,22.53 C34.16,23.01 34.18,23.46 34.17,23.87 C34.12,24.89 33.79,25.51 33.18,25.97 ZM 33.37 56.51 C33.05,55.69 33.34,52.77 34.00,50.01 C34.95,46.04 35.62,45.00 37.23,45.00 C39.03,45.00 39.19,45.44 38.63,48.94 C37.38,56.73 34.85,60.37 33.37,56.51 ZM 219.23 50.00 C219.44,50.00 219.65,50.00 219.84,50.00 C219.77,50.00 219.70,50.00 219.62,50.00 C219.50,50.00 219.36,50.00 219.23,50.00 Z" fill="rgb(229,130,43)"/>
<path d="M 117.45 48.55 C115.32,46.41 115.00,45.19 115.00,39.16 C115.00,32.99 114.77,32.17 112.92,31.69 C109.92,30.90 110.70,26.77 114.00,26.00 C115.58,25.63 116.62,24.61 116.82,23.21 C117.30,19.88 122.00,20.08 122.00,23.43 C122.00,25.35 122.59,25.94 124.75,26.18 C126.93,26.43 127.50,27.02 127.50,29.00 C127.50,30.98 126.93,31.57 124.75,31.82 C122.09,32.12 122.00,32.34 122.00,38.07 C122.00,44.08 122.27,44.46 126.25,44.05 C128.57,43.82 128.72,49.51 126.42,50.39 C123.20,51.63 119.84,50.93 117.45,48.55 ZM 179.20 49.38 C175.02,47.25 173.00,43.37 173.00,37.45 C173.00,33.50 173.51,32.29 176.40,29.40 C179.27,26.53 180.51,26.00 184.33,26.00 C191.35,26.00 193.84,27.39 196.15,32.60 C198.65,38.26 198.03,42.81 194.16,47.14 C190.74,50.98 184.24,51.95 179.20,49.38 ZM 188.17 44.35 C190.51,42.23 190.67,34.81 188.43,32.57 C184.56,28.70 180.00,31.92 180.00,38.51 C180.00,41.90 180.50,43.24 182.22,44.44 C185.03,46.41 185.91,46.40 188.17,44.35 ZM 82.06 48.75 C82.09,48.06 84.23,41.42 86.82,34.00 L 91.52 20.50 L 96.57 20.20 L 101.61 19.91 L 106.32 33.70 C108.90,41.29 111.02,48.06 111.01,48.75 C111.00,49.51 109.63,50.00 107.52,50.00 C104.64,50.00 103.93,49.57 103.41,47.50 C102.82,45.17 102.37,45.00 96.50,45.00 C90.63,45.00 90.18,45.17 89.59,47.50 C89.07,49.57 88.36,50.00 85.48,50.00 C83.33,50.00 82.02,49.52 82.06,48.75 ZM 100.21 39.46 C100.86,38.81 98.13,28.89 96.96,27.63 C96.21,26.81 93.00,35.76 93.00,38.68 C93.00,39.98 99.04,40.63 100.21,39.46 ZM 132.22 38.25 C132.49,26.92 132.58,26.49 134.75,26.18 C136.69,25.90 137.00,26.31 137.01,29.18 L 137.02 32.50 L 139.58 29.25 C141.54,26.77 142.92,26.00 145.42,26.00 C148.78,26.00 151.99,28.47 152.01,31.08 C152.02,31.86 153.17,31.04 154.58,29.25 C158.01,24.91 163.77,24.62 166.93,28.63 C168.69,30.87 169.00,32.67 169.00,40.63 L 169.00 50.00 L 165.50 50.00 L 162.00 50.00 L 162.00 42.58 C162.00,33.53 161.47,32.00 158.37,32.00 C155.21,32.00 154.00,35.21 154.00,43.57 L 154.00 50.00 L 150.50 50.00 L 147.00 50.00 L 146.99 43.25 C146.97,34.17 146.30,32.00 143.51,32.00 C139.97,32.00 138.73,34.47 138.22,42.54 C137.74,50.00 137.74,50.00 134.84,50.00 L 131.94 50.00 L 132.22 38.25 ZM 199.00 49.48 C199.00,49.20 200.61,46.54 202.58,43.57 L 206.17 38.17 L 202.58 32.85 C200.61,29.92 199.00,27.18 199.00,26.76 C199.00,26.34 200.57,26.00 202.48,26.00 C205.62,26.00 206.19,26.46 208.35,30.71 L 210.75 35.42 L 212.92 31.16 C215.30,26.50 216.52,25.69 220.44,26.18 L 223.05 26.50 L 219.52 31.84 C217.59,34.77 216.00,37.62 216.00,38.16 C216.00,38.70 217.27,41.02 218.83,43.32 C223.51,50.24 223.50,50.00 219.21,50.00 C215.62,50.00 215.16,49.68 213.50,46.00 C212.51,43.80 211.38,42.00 211.00,42.00 C210.62,42.00 209.49,43.80 208.50,46.00 C206.85,49.66 206.37,50.00 202.85,50.00 C200.73,50.00 199.00,49.77 199.00,49.48 Z" fill="rgb(247,249,249)"/>
</g>
</svg>